<svg xmlns="http://www.w3.org/2000/svg" id="Layer_1" x="0" y="0" version="1.1" viewBox="0 0 500 500" xml:space="preserve">
  <defs/>
  <style>
    .st0{fill:#006400}
  </style>
  <g id="XMLID_46_">
    <path id="XMLID_48_" d="M72.4 241.9h-3.2c-1.1 0-1.7-.4-1.7-1.5 0-1 .6-1.5 1.7-1.5h3.2v-2.8c0-4.9 2.5-7.4 7.4-7.4 1.9 0 3.6.4 5 1.1 1.7 1.1 2.5 2.6 2.5 4.4 0 1.3-.4 1.8-1.4 1.8-.7 0-1.3-.4-1.5-1.1-.4-1.3-.8-2.1-1.1-2.4-.6-.7-1.8-1.1-3.5-1.1-3.1 0-4.4 1.5-4.4 4.4v2.8h5.8c1.3 0 1.9.4 1.9 1.5 0 1-.7 1.5-1.9 1.5h-5.8v18.5c0 1.1-.4 1.7-1.4 1.7-1 0-1.4-.6-1.4-1.7l-.2-18.2z" class="st0"/>
    <path id="XMLID_52_" d="M98.3 258.8V242H94c-1.2 0-1.8-.4-1.8-1.5 0-1 .6-1.5 1.8-1.5h5.7c1 0 1.5.8 1.5 2.5 1.8-1.9 3.6-2.9 5.7-2.9 1.7 0 2.9.4 3.9 1.5s1.4 2.4 1.4 4c0 1.1-.4 1.7-1.4 1.7-.6 0-1-.4-1.3-1.1-.4-1.4-.7-2.1-.7-2.2-.4-.7-1.3-1.1-2.2-1.1-1.1 0-2.2.4-3.1 1.3-.6.4-1.4 1.3-2.4 2.6v13.5h5.4c1.3 0 1.8.4 1.8 1.4 0 1-.6 1.5-1.8 1.5H94c-1.3 0-1.8-.4-1.8-1.5 0-1 .6-1.5 1.8-1.5h4.4l-.1.1z" class="st0"/>
    <path id="XMLID_55_" d="M120 250.8v3.2c0 3.5 2.4 5.1 7.2 5.1 1.8 0 3.2-.1 4.3-.6.6-.1 1.5-.7 2.9-1.7.8-.8 1.5-1.2 1.8-1.2.8 0 1.3.4 1.3 1.2 0 .8-.6 1.8-1.8 2.8-1.9 1.5-4.9 2.4-8.6 2.4-6.7 0-10-2.6-10-8.1V246c0-1.8.7-3.5 2.1-4.7 1.8-1.8 4.6-2.6 8.2-2.6 6.5 0 9.7 3.3 9.7 9.9 0 1.7-.7 2.4-1.8 2.4l-15.3-.2zm0-2.9h14.3c0-4.3-2.4-6.5-7.2-6.5-1.8 0-3.3.4-4.9 1.3-1.4 1.1-2.2 2.2-2.2 3.6v1.6z" class="st0"/>
    <path id="XMLID_58_" d="M145.1 250.8v3.2c0 3.5 2.4 5.1 7.2 5.1 1.8 0 3.2-.1 4.3-.6.6-.1 1.5-.7 2.9-1.7.8-.8 1.5-1.2 1.8-1.2.8 0 1.3.4 1.3 1.2 0 .8-.6 1.8-1.8 2.8-1.9 1.5-4.9 2.4-8.6 2.4-6.7 0-10-2.6-10-8.1V246c0-1.8.7-3.5 2.1-4.7 1.8-1.8 4.6-2.6 8.2-2.6 6.5 0 9.7 3.3 9.7 9.9 0 1.7-.7 2.4-1.8 2.4l-15.3-.2zm0-2.9h14.3c0-4.3-2.4-6.5-7.2-6.5-1.8 0-3.3.4-4.9 1.3-1.5 1.1-2.2 2.2-2.2 3.6v1.6z" class="st0"/>
    <path id="XMLID_59_" d="M167.5 252.8v-12.5c0-6.7 3.5-9.9 10.4-9.9 2.8 0 5 .7 6.8 1.8 1.9 1.5 2.9 3.6 2.9 6.3 0 1.3-.4 1.8-1.5 1.8-.7 0-1.3-.6-1.5-1.8-.1-1-.6-1.9-1.1-2.8-.8-1.7-2.8-2.4-5.8-2.4-2.5 0-4.4.7-5.6 1.9s-1.5 3.1-1.5 5.7v10.4c0 2.8.6 4.7 1.7 5.8 1.3 1.3 3.1 2.1 5.6 2.1 3.9 0 6.1-1.4 6.7-4 .3-1.1.3-1.5.3-1.7.3-.6.7-.8 1.3-.8 1 0 1.5.7 1.5 1.8 0 2.5-1.1 4.4-3.1 6-1.7 1.1-3.8 1.7-6.5 1.7-3.2 0-5.7-.7-7.5-2.2-2.1-1.7-3.1-4.2-3.1-7.2z" class="st0"/>
    <path id="XMLID_63_" d="M192.2 254.6v-8.3c0-5.1 3.3-7.6 10-7.6s10 2.5 10 7.6v8.3c0 5.1-3.3 7.6-9.9 7.6-6.7-.1-10.1-2.6-10.1-7.6zm17.1 0v-8.3c0-3.2-2.4-4.7-7.2-4.7-4.6 0-7.1 1.7-7.1 4.7v8.3c0 3.2 2.4 4.7 7.2 4.7 4.9-.1 7.1-1.7 7.1-4.7z" class="st0"/>
    <path id="XMLID_69_" d="M234.2 259.3c-1.4 1.1-2.5 1.7-3.6 2.1-1.1.4-2.5.7-4 .7-2.6 0-4.9-.6-6.5-1.7-1.9-1.3-2.9-3.2-2.9-5.8V246c0-2.5 1-4.4 2.8-5.7 1.5-1.1 3.8-1.7 6.3-1.7 1.7 0 3.1.1 4.2.6 1.1.4 2.4 1.1 3.6 2.2V231c0-1.4.4-2.1 1.4-2.1 1 0 1.5.7 1.5 2.1v29.6c0 1.1-.4 1.5-1.4 1.5-.6 0-1-.3-1.1-1-.2-.4-.3-1-.3-1.8zm-.2-3.3v-11.7c-1.4-1.1-2.5-1.8-3.5-2.1-1.3-.4-2.5-.7-3.9-.7-1.8 0-3.3.3-4.4 1.1-1.4.8-2.2 2.2-2.2 3.8v8.1c0 1.7.7 2.9 2.2 3.9 1.3.7 2.6 1.1 4.6 1.1 1.5 0 2.9-.3 4-.7 1-.9 2.1-1.7 3.2-2.8z" class="st0"/>
    <path id="XMLID_72_" d="M245.1 250.8v3.2c0 3.5 2.4 5.1 7.2 5.1 1.8 0 3.2-.1 4.3-.6.6-.1 1.5-.7 2.9-1.7.8-.8 1.5-1.2 1.8-1.2.8 0 1.3.4 1.3 1.2 0 .8-.6 1.8-1.8 2.8-1.9 1.5-4.9 2.4-8.6 2.4-6.7 0-10-2.6-10-8.1V246c0-1.8.7-3.5 2.1-4.7 1.8-1.8 4.6-2.6 8.2-2.6 6.5 0 9.7 3.3 9.7 9.9 0 1.7-.7 2.4-1.8 2.4l-15.3-.2zm0-2.9h14.3c0-4.3-2.4-6.5-7.2-6.5-1.8 0-3.3.4-4.9 1.3-1.5 1.1-2.2 2.2-2.2 3.6v1.6z" class="st0"/>
    <path id="XMLID_77_" d="M267.5 252.8v-12.5c0-6.7 3.5-9.9 10.4-9.9 2.8 0 5 .7 6.8 1.8 1.9 1.5 2.9 3.6 2.9 6.3 0 1.3-.4 1.8-1.5 1.8-.7 0-1.3-.6-1.5-1.8-.1-1-.6-1.9-1.1-2.8-.8-1.7-2.8-2.4-5.8-2.4-2.5 0-4.4.7-5.6 1.9-1.1 1.3-1.5 3.1-1.5 5.7v10.4c0 2.8.6 4.7 1.7 5.8 1.2 1.3 3.1 2.1 5.6 2.1 3.9 0 6.1-1.4 6.7-4 .3-1.1.3-1.5.3-1.7.3-.6.7-.8 1.2-.8 1 0 1.5.7 1.5 1.8 0 2.5-1.1 4.4-3.1 6-1.7 1.1-3.8 1.7-6.5 1.7-3.2 0-5.7-.7-7.5-2.2-2-1.7-3-4.2-3-7.2z" class="st0"/>
    <path id="XMLID_80_" d="M308.3 259.3c-1.4 1.1-2.5 1.8-3.3 2.1-1.1.4-2.4.7-3.9.7-2.4 0-4.4-.4-6-1.5-1.8-1.3-2.6-2.9-2.6-5.3s1-4.2 2.8-5.6c1.5-1.2 3.6-1.8 6.1-1.8 1.9 0 4.2.4 6.8 1.4v-3.6c0-1.7-.8-2.9-2.4-3.6-1.1-.4-2.5-.7-4-.7-3.8 0-5.7 1.1-6.1 3.2-.1 1-.3 1.5-.3 1.5-.3.4-.7.7-1.3.7-1.1 0-1.5-.6-1.5-1.7 0-1.5.6-2.9 1.8-4.2 1.4-1.7 4-2.4 7.8-2.4 2.9 0 5.1.4 6.5 1.5 1.7 1.3 2.5 3.2 2.5 6.1v10.3c0 1.2.3 2.1.7 2.4l1.4.7c.4.3.7.7.7 1.4 0 .8-.4 1.3-1.3 1.3-.3 0-.7 0-1.3-.3-1.1-.4-1.8-.7-1.9-.7-.7-.5-1-1.1-1.2-1.9zm-.1-3V252c-2.2-.7-4.4-1.1-6.3-1.1-4.3 0-6.4 1.4-6.4 4.2 0 1.5.7 2.6 1.9 3.2 1.1.6 2.4.8 3.9.8 1.4 0 2.6-.3 3.7-.8.8-.2 1.8-.9 3.2-2z" class="st0"/>
    <path id="XMLID_81_" d="M319.4 241c.7-.8 1.4-1.5 1.8-1.8.7-.4 1.4-.7 2.5-.7 1.5 0 2.9.8 4.2 2.5.8-1 1.5-1.7 2.2-1.9.7-.4 1.7-.6 2.8-.6 3.5 0 5.1 1.7 5.1 5.1V260c0 1.4-.4 2.1-1.5 2.1-1 0-1.4-.7-1.4-2.1v-15.4c0-2.1-.8-3.2-2.5-3.2-1.3 0-2.5.8-3.6 2.4V260c0 1.4-.4 2.1-1.4 2.1s-1.4-.7-1.4-2.1v-15c0-2.4-1-3.5-2.8-3.5-1.3 0-2.4.8-3.5 2.4v16.3c0 1.4-.4 2.1-1.5 2.1-1 0-1.4-.7-1.4-2.1v-20c0-1 .4-1.5 1.3-1.5.4 0 .8.3 1.1.8-.1.4 0 1.1 0 1.5z" class="st0"/>
    <path id="XMLID_84_" d="M345.4 241c2.2-1.7 4.9-2.4 7.8-2.4 6.1 0 9 2.6 9 7.6v8.3c0 2.4-.8 4.3-2.5 5.7-1.5 1.3-3.6 1.8-6.3 1.8-3.1 0-5.7-.8-8.1-2.5v9.6c0 1.5-.4 2.2-1.4 2.2-1 0-1.4-.7-1.4-2.2v-28.3c0-1.5.4-2.2 1.2-2.2.4 0 .8.3 1.1.8.2.6.3 1.2.6 1.6zm0 15.4c2.1 1.8 4.6 2.8 7.5 2.8 1.8 0 3.3-.3 4.4-1.1 1.4-.8 1.9-2.1 1.9-3.6v-8.3c0-1.8-.7-2.9-2.2-3.8-1.1-.6-2.6-.8-4.4-.8-1.7 0-3.1.3-4 .7-1 .4-1.9 1.3-3.3 2.6v11.5h.1z" class="st0"/>
    <path id="XMLID_85_" d="M372.1 248.3c0-6.4 2.2-12.1 6.5-16.9 1.5-1.8 2.9-2.8 3.8-2.8.3 0 .7 0 .8.3.3.3.4.4.4.8s-.6 1.2-1.7 2.4c-4.6 4.4-6.8 9.9-6.8 16.4 0 7.2 2.4 13.2 7.1 17.6 1 .8 1.4 1.7 1.4 2.2 0 .3-.1.7-.4.8-.3.3-.6.4-.8.4-1.1 0-2.6-1.3-4.6-3.9-3.9-4.6-5.7-10.3-5.7-17.3z" class="st0"/>
    <path id="XMLID_86_" d="M432.5 250c0 6.4-2.2 12.1-6.5 16.9-1.5 1.8-2.9 2.8-3.8 2.8-.3 0-.7 0-.8-.3-.3-.3-.4-.6-.4-.8 0-.4.6-1.3 1.7-2.2 4.6-4.4 6.8-9.9 6.8-16.4 0-7.2-2.4-13.2-7.1-17.6-1-.8-1.4-1.7-1.4-2.2 0-.3.1-.7.4-.8.3-.3.6-.4.8-.4 1.1 0 2.6 1.3 4.6 3.9 3.8 4.5 5.7 10.3 5.7 17.1z" class="st0"/>
    <path id="XMLID_87_" d="M416 268.3h-27.6c-.8 0-1.7-.7-1.7-1.7s.7-1.7 1.7-1.7H416c.8 0 1.7.7 1.7 1.7-.1 1-.6 1.7-1.7 1.7z" class="st0"/>
    <path id="XMLID_88_" d="M396.4 232.1s2.4 1.7 2.4 4.4c0 5-6.8 10.6-6.8 15.8 0 5.7 4.3 9.3 8.3 10.4.6.1.8-.6.1-.7-1.7-.4-3.6-2.6-3.6-6.1 0-3.2 3.1-4.4 4.3-6 1.3-1.7 1-3.6.3-4.2-.7-.6-.3-1.4 1.1-.4 1.3 1 2.5 2.6 2.1 4.3-.6 2.1.1 3.3 1.3 3.5 1.1.1 2.4-.4 2.2-1.4-.1-1-.7-2.1-.4-2.1.8 0 2.5 1.9 2.5 5s-2.5 5.3-3.3 6.1c-.4.4.1 1.1.8.8.3-.1 1-.6 1.4-.8 1.9-1.4 5.1-4.3 5.1-9.7 0-5.7-2.1-8.2-4.3-10.3-2.1-2.1-2.6-1.5-2.1-.6 1.8 3.2.7 4.2-.6 4.2-1.5 0-1.7-3.6-2.2-6.3-1.4-6.1-6.8-7.1-7.8-7.1-1.1.1-2.1.6-.8 1.2z" class="st0"/>
  </g>
</svg>
