<?xml version="1.0" encoding="utf-8"?>
<!-- Generator: Adobe Illustrator 19.0.0, SVG Export Plug-In . SVG Version: 6.00 Build 0)  -->
<svg version="1.1" id="Layer_1" xmlns="http://www.w3.org/2000/svg" xmlns:xlink="http://www.w3.org/1999/xlink" x="0px" y="0px"
	 viewBox="0 0 500 500" style="enable-background:new 0 0 500 500;" xml:space="preserve">
<style type="text/css">
	.st0{fill:#006400;}
</style>
<g id="XMLID_46_">
	<path id="XMLID_48_" class="st0" d="M72.4,241.9h-3.2c-1.1,0-1.7-0.4-1.7-1.5c0-1,0.6-1.5,1.7-1.5h3.2v-2.8c0-4.9,2.5-7.4,7.4-7.4
		c1.9,0,3.6,0.4,5,1.1c1.7,1.1,2.5,2.6,2.5,4.4c0,1.3-0.4,1.8-1.4,1.8c-0.7,0-1.3-0.4-1.5-1.1c-0.4-1.3-0.8-2.1-1.1-2.4
		c-0.6-0.7-1.8-1.1-3.5-1.1c-3.1,0-4.4,1.5-4.4,4.4v2.8h5.8c1.3,0,1.9,0.4,1.9,1.5c0,1-0.7,1.5-1.9,1.5h-5.8v18.5
		c0,1.1-0.4,1.7-1.4,1.7c-1,0-1.4-0.6-1.4-1.7L72.4,241.9z"/>
	<path id="XMLID_52_" class="st0" d="M98.3,258.8v-16.8H94c-1.2,0-1.8-0.4-1.8-1.5c0-1,0.6-1.5,1.8-1.5h5.7c1,0,1.5,0.8,1.5,2.5
		c1.8-1.9,3.6-2.9,5.7-2.9c1.7,0,2.9,0.4,3.9,1.5c1,1.1,1.4,2.4,1.4,4c0,1.1-0.4,1.7-1.4,1.7c-0.6,0-1-0.4-1.3-1.1
		c-0.4-1.4-0.7-2.1-0.7-2.2c-0.4-0.7-1.3-1.1-2.2-1.1c-1.1,0-2.2,0.4-3.1,1.3c-0.6,0.4-1.4,1.3-2.4,2.6v13.5h5.4
		c1.3,0,1.8,0.4,1.8,1.4c0,1-0.6,1.5-1.8,1.5H94c-1.3,0-1.8-0.4-1.8-1.5c0-1,0.6-1.5,1.8-1.5h4.4L98.3,258.8z"/>
	<path id="XMLID_55_" class="st0" d="M120,250.8v3.2c0,3.5,2.4,5.1,7.2,5.1c1.8,0,3.2-0.1,4.3-0.6c0.6-0.1,1.5-0.7,2.9-1.7
		c0.8-0.8,1.5-1.2,1.8-1.2c0.8,0,1.3,0.4,1.3,1.2c0,0.8-0.6,1.8-1.8,2.8c-1.9,1.5-4.9,2.4-8.6,2.4c-6.7,0-10-2.6-10-8.1V246
		c0-1.8,0.7-3.5,2.1-4.7c1.8-1.8,4.6-2.6,8.2-2.6c6.5,0,9.7,3.3,9.7,9.9c0,1.7-0.7,2.4-1.8,2.4L120,250.8z M120,247.9h14.3
		c0-4.3-2.4-6.5-7.2-6.5c-1.8,0-3.3,0.4-4.9,1.3c-1.4,1.1-2.2,2.2-2.2,3.6L120,247.9L120,247.9z"/>
	<path id="XMLID_58_" class="st0" d="M145.1,250.8v3.2c0,3.5,2.4,5.1,7.2,5.1c1.8,0,3.2-0.1,4.3-0.6c0.6-0.1,1.5-0.7,2.9-1.7
		c0.8-0.8,1.5-1.2,1.8-1.2c0.8,0,1.3,0.4,1.3,1.2c0,0.8-0.6,1.8-1.8,2.8c-1.9,1.5-4.9,2.4-8.6,2.4c-6.7,0-10-2.6-10-8.1V246
		c0-1.8,0.7-3.5,2.1-4.7c1.8-1.8,4.6-2.6,8.2-2.6c6.5,0,9.7,3.3,9.7,9.9c0,1.7-0.7,2.4-1.8,2.4L145.1,250.8z M145.1,247.9h14.3
		c0-4.3-2.4-6.5-7.2-6.5c-1.8,0-3.3,0.4-4.9,1.3c-1.5,1.1-2.2,2.2-2.2,3.6L145.1,247.9L145.1,247.9z"/>
	<path id="XMLID_59_" class="st0" d="M167.5,252.8v-12.5c0-6.7,3.5-9.9,10.4-9.9c2.8,0,5,0.7,6.8,1.8c1.9,1.5,2.9,3.6,2.9,6.3
		c0,1.3-0.4,1.8-1.5,1.8c-0.7,0-1.3-0.6-1.5-1.8c-0.1-1-0.6-1.9-1.1-2.8c-0.8-1.7-2.8-2.4-5.8-2.4c-2.5,0-4.4,0.7-5.6,1.9
		s-1.5,3.1-1.5,5.7v10.4c0,2.8,0.6,4.7,1.7,5.8c1.3,1.3,3.1,2.1,5.6,2.1c3.9,0,6.1-1.4,6.7-4c0.3-1.1,0.3-1.5,0.3-1.7
		c0.3-0.6,0.7-0.8,1.3-0.8c1,0,1.5,0.7,1.5,1.8c0,2.5-1.1,4.4-3.1,6c-1.7,1.1-3.8,1.7-6.5,1.7c-3.2,0-5.7-0.7-7.5-2.2
		C168.5,258.3,167.5,255.8,167.5,252.8z"/>
	<path id="XMLID_63_" class="st0" d="M192.2,254.6v-8.3c0-5.1,3.3-7.6,10-7.6s10,2.5,10,7.6v8.3c0,5.1-3.3,7.6-9.9,7.6
		C195.6,262.1,192.2,259.6,192.2,254.6z M209.3,254.6v-8.3c0-3.2-2.4-4.7-7.2-4.7c-4.6,0-7.1,1.7-7.1,4.7v8.3c0,3.2,2.4,4.7,7.2,4.7
		C207.1,259.2,209.3,257.6,209.3,254.6z"/>
	<path id="XMLID_69_" class="st0" d="M234.2,259.3c-1.4,1.1-2.5,1.7-3.6,2.1c-1.1,0.4-2.5,0.7-4,0.7c-2.6,0-4.9-0.6-6.5-1.7
		c-1.9-1.3-2.9-3.2-2.9-5.8V246c0-2.5,1-4.4,2.8-5.7c1.5-1.1,3.8-1.7,6.3-1.7c1.7,0,3.1,0.1,4.2,0.6c1.1,0.4,2.4,1.1,3.6,2.2V231
		c0-1.4,0.4-2.1,1.4-2.1c1,0,1.5,0.7,1.5,2.1v29.6c0,1.1-0.4,1.5-1.4,1.5c-0.6,0-1-0.3-1.1-1C234.3,260.7,234.2,260.1,234.2,259.3z
		 M234,256v-11.7c-1.4-1.1-2.5-1.8-3.5-2.1c-1.3-0.4-2.5-0.7-3.9-0.7c-1.8,0-3.3,0.3-4.4,1.1c-1.4,0.8-2.2,2.2-2.2,3.8v8.1
		c0,1.7,0.7,2.9,2.2,3.9c1.3,0.7,2.6,1.1,4.6,1.1c1.5,0,2.9-0.3,4-0.7C231.8,257.9,232.9,257.1,234,256z"/>
	<path id="XMLID_72_" class="st0" d="M245.1,250.8v3.2c0,3.5,2.4,5.1,7.2,5.1c1.8,0,3.2-0.1,4.3-0.6c0.6-0.1,1.5-0.7,2.9-1.7
		c0.8-0.8,1.5-1.2,1.8-1.2c0.8,0,1.3,0.4,1.3,1.2c0,0.8-0.6,1.8-1.8,2.8c-1.9,1.5-4.9,2.4-8.6,2.4c-6.7,0-10-2.6-10-8.1V246
		c0-1.8,0.7-3.5,2.1-4.7c1.8-1.8,4.6-2.6,8.2-2.6c6.5,0,9.7,3.3,9.7,9.9c0,1.7-0.7,2.4-1.8,2.4L245.1,250.8z M245.1,247.9h14.3
		c0-4.3-2.4-6.5-7.2-6.5c-1.8,0-3.3,0.4-4.9,1.3c-1.5,1.1-2.2,2.2-2.2,3.6V247.9z"/>
	<path id="XMLID_77_" class="st0" d="M267.5,252.8v-12.5c0-6.7,3.5-9.9,10.4-9.9c2.8,0,5,0.7,6.8,1.8c1.9,1.5,2.9,3.6,2.9,6.3
		c0,1.3-0.4,1.8-1.5,1.8c-0.7,0-1.3-0.6-1.5-1.8c-0.1-1-0.6-1.9-1.1-2.8c-0.8-1.7-2.8-2.4-5.8-2.4c-2.5,0-4.4,0.7-5.6,1.9
		c-1.1,1.3-1.5,3.1-1.5,5.7v10.4c0,2.8,0.6,4.7,1.7,5.8c1.2,1.3,3.1,2.1,5.6,2.1c3.9,0,6.1-1.4,6.7-4c0.3-1.1,0.3-1.5,0.3-1.7
		c0.3-0.6,0.7-0.8,1.2-0.8c1,0,1.5,0.7,1.5,1.8c0,2.5-1.1,4.4-3.1,6c-1.7,1.1-3.8,1.7-6.5,1.7c-3.2,0-5.7-0.7-7.5-2.2
		C268.5,258.3,267.5,255.8,267.5,252.8z"/>
	<path id="XMLID_80_" class="st0" d="M308.3,259.3c-1.4,1.1-2.5,1.8-3.3,2.1c-1.1,0.4-2.4,0.7-3.9,0.7c-2.4,0-4.4-0.4-6-1.5
		c-1.8-1.3-2.6-2.9-2.6-5.3c0-2.4,1-4.2,2.8-5.6c1.5-1.2,3.6-1.8,6.1-1.8c1.9,0,4.2,0.4,6.8,1.4v-3.6c0-1.7-0.8-2.9-2.4-3.6
		c-1.1-0.4-2.5-0.7-4-0.7c-3.8,0-5.7,1.1-6.1,3.2c-0.1,1-0.3,1.5-0.3,1.5c-0.3,0.4-0.7,0.7-1.3,0.7c-1.1,0-1.5-0.6-1.5-1.7
		c0-1.5,0.6-2.9,1.8-4.2c1.4-1.7,4-2.4,7.8-2.4c2.9,0,5.1,0.4,6.5,1.5c1.7,1.3,2.5,3.2,2.5,6.1v10.3c0,1.2,0.3,2.1,0.7,2.4
		c0,0,0.6,0.3,1.4,0.7c0.4,0.3,0.7,0.7,0.7,1.4c0,0.8-0.4,1.3-1.3,1.3c-0.3,0-0.7,0-1.3-0.3c-1.1-0.4-1.8-0.7-1.9-0.7
		C308.8,260.7,308.5,260.1,308.3,259.3z M308.2,256.3v-4.3c-2.2-0.7-4.4-1.1-6.3-1.1c-4.3,0-6.4,1.4-6.4,4.2c0,1.5,0.7,2.6,1.9,3.2
		c1.1,0.6,2.4,0.8,3.9,0.8c1.4,0,2.6-0.3,3.7-0.8C305.8,258.1,306.8,257.4,308.2,256.3z"/>
	<path id="XMLID_81_" class="st0" d="M319.4,241c0.7-0.8,1.4-1.5,1.8-1.8c0.7-0.4,1.4-0.7,2.5-0.7c1.5,0,2.9,0.8,4.2,2.5
		c0.8-1,1.5-1.7,2.2-1.9c0.7-0.4,1.7-0.6,2.8-0.6c3.5,0,5.1,1.7,5.1,5.1V260c0,1.4-0.4,2.1-1.5,2.1c-1,0-1.4-0.7-1.4-2.1v-15.4
		c0-2.1-0.8-3.2-2.5-3.2c-1.3,0-2.5,0.8-3.6,2.4V260c0,1.4-0.4,2.1-1.4,2.1s-1.4-0.7-1.4-2.1v-15c0-2.4-1-3.5-2.8-3.5
		c-1.3,0-2.4,0.8-3.5,2.4v16.3c0,1.4-0.4,2.1-1.5,2.1c-1,0-1.4-0.7-1.4-2.1v-20c0-1,0.4-1.5,1.3-1.5c0.4,0,0.8,0.3,1.1,0.8
		C319.3,239.9,319.4,240.6,319.4,241z"/>
	<path id="XMLID_84_" class="st0" d="M345.4,241c2.2-1.7,4.9-2.4,7.8-2.4c6.1,0,9,2.6,9,7.6v8.3c0,2.4-0.8,4.3-2.5,5.7
		c-1.5,1.3-3.6,1.8-6.3,1.8c-3.1,0-5.7-0.8-8.1-2.5v9.6c0,1.5-0.4,2.2-1.4,2.2c-1,0-1.4-0.7-1.4-2.2v-28.3c0-1.5,0.4-2.2,1.2-2.2
		c0.4,0,0.8,0.3,1.1,0.8C345,240,345.1,240.6,345.4,241z M345.4,256.4c2.1,1.8,4.6,2.8,7.5,2.8c1.8,0,3.3-0.3,4.4-1.1
		c1.4-0.8,1.9-2.1,1.9-3.6v-8.3c0-1.8-0.7-2.9-2.2-3.8c-1.1-0.6-2.6-0.8-4.4-0.8c-1.7,0-3.1,0.3-4,0.7c-1,0.4-1.9,1.3-3.3,2.6v11.5
		H345.4z"/>
	<path id="XMLID_85_" class="st0" d="M372.1,248.3c0-6.4,2.2-12.1,6.5-16.9c1.5-1.8,2.9-2.8,3.8-2.8c0.3,0,0.7,0,0.8,0.3
		c0.3,0.3,0.4,0.4,0.4,0.8c0,0.4-0.6,1.2-1.7,2.4c-4.6,4.4-6.8,9.9-6.8,16.4c0,7.2,2.4,13.2,7.1,17.6c1,0.8,1.4,1.7,1.4,2.2
		c0,0.3-0.1,0.7-0.4,0.8c-0.3,0.3-0.6,0.4-0.8,0.4c-1.1,0-2.6-1.3-4.6-3.9C373.9,261,372.1,255.3,372.1,248.3z"/>
	<path id="XMLID_86_" class="st0" d="M432.5,250c0,6.4-2.2,12.1-6.5,16.9c-1.5,1.8-2.9,2.8-3.8,2.8c-0.3,0-0.7,0-0.8-0.3
		c-0.3-0.3-0.4-0.6-0.4-0.8c0-0.4,0.6-1.3,1.7-2.2c4.6-4.4,6.8-9.9,6.8-16.4c0-7.2-2.4-13.2-7.1-17.6c-1-0.8-1.4-1.7-1.4-2.2
		c0-0.3,0.1-0.7,0.4-0.8c0.3-0.3,0.6-0.4,0.8-0.4c1.1,0,2.6,1.3,4.6,3.9C430.6,237.4,432.5,243.2,432.5,250z"/>
	<path id="XMLID_87_" class="st0" d="M416,268.3h-27.6c-0.8,0-1.7-0.7-1.7-1.7c0-1,0.7-1.7,1.7-1.7H416c0.8,0,1.7,0.7,1.7,1.7
		C417.6,267.6,417.1,268.3,416,268.3z"/>
	<path id="XMLID_88_" class="st0" d="M396.4,232.1c0,0,2.4,1.7,2.4,4.4c0,5-6.8,10.6-6.8,15.8c0,5.7,4.3,9.3,8.3,10.4
		c0.6,0.1,0.8-0.6,0.1-0.7c-1.7-0.4-3.6-2.6-3.6-6.1c0-3.2,3.1-4.4,4.3-6c1.3-1.7,1-3.6,0.3-4.2c-0.7-0.6-0.3-1.4,1.1-0.4
		c1.3,1,2.5,2.6,2.1,4.3c-0.6,2.1,0.1,3.3,1.3,3.5c1.1,0.1,2.4-0.4,2.2-1.4c-0.1-1-0.7-2.1-0.4-2.1c0.8,0,2.5,1.9,2.5,5
		c0,3.1-2.5,5.3-3.3,6.1c-0.4,0.4,0.1,1.1,0.8,0.8c0.3-0.1,1-0.6,1.4-0.8c1.9-1.4,5.1-4.3,5.1-9.7c0-5.7-2.1-8.2-4.3-10.3
		c-2.1-2.1-2.6-1.5-2.1-0.6c1.8,3.2,0.7,4.2-0.6,4.2c-1.5,0-1.7-3.6-2.2-6.3c-1.4-6.1-6.8-7.1-7.8-7.1
		C396.1,231,395.1,231.5,396.4,232.1z"/>
</g>
</svg>
